<?xml version="1.0" ?><svg viewBox="0 0 64 64" xmlns="http://www.w3.org/2000/svg"><defs><style>.cls-1{isolation:isolate;}.cls-2{fill:#00aade;}.cls-3{fill:#fff;}.cls-4{fill:#0078de;}</style></defs><title/><g data-name="6-twitter" id="_6-twitter"><g class="cls-1"><polygon class="cls-2" points="50.33 25.69 39.74 19.93 42.85 16.14 53.44 21.9 50.33 25.69"/><polygon class="cls-3" points="49.09 23.86 38.5 18.1 42.85 16.14 53.44 21.9 49.09 23.86"/><path class="cls-2" d="M49.09,23.85,38.5,18.1a7.8,7.8,0,0,0,3.11-4.46L52.2,19.4A7.79,7.79,0,0,1,49.09,23.85Z"/><path class="cls-3" d="M48.31,21.72,37.73,16a9.21,9.21,0,0,0,3.88-2.32L52.2,19.4A9.16,9.16,0,0,1,48.31,21.72Z"/><path class="cls-2" d="M37.73,16a5.18,5.18,0,0,0-1.48-1.2l10.58,5.76a5,5,0,0,1,1.48,1.2C45.14,20,40.53,18.24,37.73,16Z"/><path class="cls-3" d="M36.25,14.76l10.58,5.76A5.31,5.31,0,0,0,43.52,20L32.93,14.19A5.36,5.36,0,0,1,36.25,14.76Z"/><polygon class="cls-3" points="37.3 29.53 26.72 23.77 27 23.73 37.59 29.49 37.3 29.53"/><path class="cls-2" d="M22.2,48,11.61,42.25a15.77,15.77,0,0,0,9.58,1.41c8.36-1.17,17.67-8,18.55-23.73l10.59,5.76c-.88,15.72-10.19,22.56-18.55,23.73A15.83,15.83,0,0,1,22.2,48Z"/><path class="cls-3" d="M21.77,47.77,11.19,42c5.14-.72,9.3-2.81,9.3-4.66l10.59,5.76C31.08,45,26.92,47.05,21.77,47.77Z"/><path class="cls-2" d="M17,36.8a5.7,5.7,0,0,0,3.52.55l10.59,5.76a5.69,5.69,0,0,1-3.52-.55Z"/><path class="cls-3" d="M37.59,29.49,27,23.73a6.61,6.61,0,0,1-.28-2,7.7,7.7,0,0,1,6.21-7.57L43.52,20a7.69,7.69,0,0,0-6.21,7.57A6.61,6.61,0,0,0,37.59,29.49Z"/><path class="cls-3" d="M22.2,48,11.61,42.25,11.19,42l10.58,5.76Z"/><path class="cls-3" d="M25.51,39.21,14.92,33.45a2.28,2.28,0,0,0,1.19.13,3.43,3.43,0,0,0,1.29-.47L28,38.87a3.52,3.52,0,0,1-1.29.47A2.27,2.27,0,0,1,25.51,39.21Z"/><path class="cls-2" d="M15.67,32.36a11.8,11.8,0,0,0,1.73.75L28,38.87a11.35,11.35,0,0,1-1.73-.75Z"/><path class="cls-3" d="M27.56,42.56,17,36.8a3.75,3.75,0,0,1-2-3.35l10.59,5.76A3.75,3.75,0,0,0,27.56,42.56Z"/><path class="cls-3" d="M28.7,27.73,18.12,22a15.66,15.66,0,0,0,8.6,1.8L37.3,29.53A15.71,15.71,0,0,1,28.7,27.73Z"/><path class="cls-2" d="M18.12,22c-.39-.21-.75-.43-1.08-.65l10.58,5.76c.34.22.7.44,1.08.65Z"/><path class="cls-3" d="M23.19,33,12.61,27.22a6.71,6.71,0,0,0,2.94.12L26.14,33.1A6.75,6.75,0,0,1,23.19,33Z"/><path class="cls-2" d="M23.19,33,12.61,27.22a1.11,1.11,0,0,1-.16-.11L23,32.86A.61.61,0,0,0,23.19,33Z"/><path class="cls-3" d="M26.26,38.12,15.67,32.36c-3.71-2-3.25-5.07-3.22-5.25L23,32.86C23,33.05,22.54,36.1,26.26,38.12Z"/><path class="cls-2" d="M17,21.32a13.1,13.1,0,0,1-3.33-3.09L24.29,24a13.1,13.1,0,0,0,3.33,3.09L22.33,24.2l-.69-.38L21,23.44l-2-1.1-1.28-.69C17.46,21.55,17.21,21.43,17,21.32Z"/><path class="cls-3" d="M43.52,20a5.22,5.22,0,0,1,4.79,1.77A9.16,9.16,0,0,0,52.2,19.4a7.79,7.79,0,0,1-3.11,4.45l4.35-2-3.11,3.79c-.88,15.72-10.19,22.56-18.55,23.73a15.5,15.5,0,0,1-10-1.65c5.15-.72,9.31-2.81,9.31-4.66-3.09.44-5.58-1.31-5.57-3.9a2.27,2.27,0,0,0,1.19.13A3.52,3.52,0,0,0,28,38.87c-5.58-1.9-5-5.8-4.95-6,.62.59,3,.26,3.1.24-5.58-3.23-2-8.81-1.85-9.11a14.76,14.76,0,0,0,13,5.54l.29,0a6.61,6.61,0,0,1-.28-2A7.69,7.69,0,0,1,43.52,20Z"/><path class="cls-3" d="M26.14,33.1,15.55,27.34c-5.57-3.23-2-8.81-1.84-9.11L24.29,24C24.11,24.29,20.56,29.87,26.14,33.1Z"/><path class="cls-2" d="M53.47,5.84c4.79-.67,8.67,3,8.66,8.15l-.07,34.8c0,5.19-3.9,9.92-8.69,10.6L21.12,63.92c-4.79.67-8.67-3-8.66-8.15L12.52,21c0-5.17,3.91-9.91,8.7-10.59ZM50.33,25.69l3.11-3.79-4.35,2A7.79,7.79,0,0,0,52.2,19.4a9.16,9.16,0,0,1-3.89,2.32A5.22,5.22,0,0,0,43.52,20a7.69,7.69,0,0,0-6.21,7.57,6.61,6.61,0,0,0,.28,2l-.29,0a14.76,14.76,0,0,1-13-5.54c-.18.3-3.73,5.88,1.85,9.11-.13,0-2.48.35-3.1-.24,0,.21-.63,4.11,4.95,6a3.52,3.52,0,0,1-1.29.47,2.27,2.27,0,0,1-1.19-.13c0,2.59,2.48,4.34,5.57,3.9,0,1.85-4.16,3.94-9.31,4.66a15.5,15.5,0,0,0,10,1.65c8.36-1.17,17.67-8,18.55-23.73"/><path class="cls-4" d="M47.51.88a7.41,7.41,0,0,0-4.63-.8L10.63,4.61C5.84,5.29,2,10,1.94,15.21L1.87,50a8.12,8.12,0,0,0,4,7.35l10.58,5.76a8.12,8.12,0,0,1-4-7.35L12.52,21c0-5.17,3.91-9.91,8.7-10.59L53.47,5.84a7.42,7.42,0,0,1,4.63.8Z"/></g></g></svg>