<?xml version="1.0" ?><svg viewBox="0 0 64 64" xmlns="http://www.w3.org/2000/svg" xmlns:xlink="http://www.w3.org/1999/xlink"><defs><style>.cls-1{isolation:isolate;}.cls-2{fill:#1ce163;}.cls-3{fill:#fff;}.cls-4{fill:url(#linear-gradient);}.cls-5{fill:#1c9b41;}</style><linearGradient gradientUnits="userSpaceOnUse" id="linear-gradient" x1="58.45" x2="7.36" y1="6.02" y2="75.71"><stop offset="0" stop-color="#1df47c"/><stop offset="0.31" stop-color="#12df63"/><stop offset="0.75" stop-color="#05c443"/><stop offset="1" stop-color="#00ba37"/></linearGradient></defs><title/><g data-name="23-whatsapp" id="_23-whatsapp"><g class="cls-1"><path class="cls-2" d="M27.91,48C38,46.61,46.22,36.9,46.24,26.37l10.59,5.76c0,10.53-8.24,20.24-18.33,21.65Z"/><path class="cls-2" d="M46.24,26.37c0-6.67-3.28-12.09-8.26-14.8l10.59,5.76c5,2.71,8.27,8.13,8.26,14.8Z"/><path class="cls-3" d="M36.33,14.64,46.91,20.4a13.45,13.45,0,0,1,6.82,12.17c0,8.68-6.84,16.69-15.22,17.86L27.92,44.67c8.38-1.17,15.2-9.18,15.22-17.86A13.46,13.46,0,0,0,36.33,14.64Z"/><path class="cls-2" d="M35.79,35.65a11,11,0,0,0,1.29-2.74l10.59,5.76a11,11,0,0,1-1.29,2.74Z"/><path class="cls-2" d="M36.82,32.17l10.59,5.76a.61.61,0,0,1,.26.74L37.08,32.91A.6.6,0,0,0,36.82,32.17Z"/><path class="cls-3" d="M36.82,32.17l10.59,5.76,0,0L36.77,32.14Z"/><polygon class="cls-3" points="43.33 36.29 32.74 30.53 36.77 32.14 47.36 37.9 43.33 36.29"/><path class="cls-3" d="M42.56,36.6,32,30.84a.73.73,0,0,1,.5-.34.41.41,0,0,1,.27,0l10.59,5.76a.42.42,0,0,0-.27,0A.71.71,0,0,0,42.56,36.6Z"/><polygon class="cls-3" points="41.27 38.63 30.69 32.87 31.97 30.84 42.56 36.6 41.27 38.63"/><path class="cls-2" d="M32.9,37.68a4.34,4.34,0,0,0,2.89-2l10.59,5.76a4.34,4.34,0,0,1-2.89,2,3.29,3.29,0,0,1-.63,0,14.45,14.45,0,0,1-6.33-1.7L25.94,36a14.45,14.45,0,0,0,6.33,1.7A3.25,3.25,0,0,0,32.9,37.68Z"/><path class="cls-3" d="M40.58,39,30,33.2a.41.41,0,0,0,.19,0,.8.8,0,0,0,.51-.35l10.59,5.76a.8.8,0,0,1-.51.35A.41.41,0,0,1,40.58,39Z"/><path class="cls-3" d="M38.56,38.18,28,32.42a8,8,0,0,0,2,.78L40.58,39A8,8,0,0,1,38.56,38.18Z"/><path class="cls-2" d="M18.66,46.71A16.26,16.26,0,0,0,27.91,48L38.5,53.78a16.25,16.25,0,0,1-9.25-1.31Z"/><path class="cls-3" d="M30.3,49.1,19.72,43.34a13.52,13.52,0,0,0,8.2,1.33l10.59,5.76A13.56,13.56,0,0,1,30.3,49.1Z"/><polygon class="cls-3" points="29.75 48.81 19.16 43.05 19.71 43.34 30.3 49.1 29.75 48.81"/><polygon class="cls-2" points="19.96 56.35 9.37 50.59 18.66 46.71 29.25 52.47 19.96 56.35"/><polygon class="cls-3" points="24.17 52.13 13.58 46.37 19.16 43.05 29.75 48.81 24.17 52.13"/><polygon class="cls-2" points="24.17 52.13 13.58 46.37 16.39 40.85 26.98 46.61 24.17 52.13"/><path class="cls-2" d="M35.25,31.45,24.66,25.69a.74.74,0,0,0,.08-.64l10.59,5.76A.77.77,0,0,1,35.25,31.45Z"/><path class="cls-2" d="M23.5,27.28a10.29,10.29,0,0,0,1.16-1.59l10.59,5.76A10.29,10.29,0,0,1,34.09,33h0L23.5,27.28Z"/><path class="cls-2" d="M23.38,28.21a.75.75,0,0,1,.12-.93L34.09,33A.75.75,0,0,0,34,34h0L23.38,28.21,34,34a15.13,15.13,0,0,0,4.59,4.21L28,32.42A15.25,15.25,0,0,1,23.38,28.21Z"/><polygon class="cls-2" points="26.98 46.61 16.39 40.85 15.81 40.13 26.4 45.9 26.98 46.61"/><polygon class="cls-3" points="19.96 56.35 9.37 50.59 12.81 41.81 23.39 47.57 19.96 56.35"/><path class="cls-2" d="M28,13.22a13.36,13.36,0,0,1,8.34,1.42L46.91,20.4A13.36,13.36,0,0,0,38.57,19Z"/><polygon class="cls-2" points="35.33 30.81 24.74 25.05 23.17 20.73 33.76 26.49 35.33 30.81"/><path class="cls-2" d="M23.17,20.73a.54.54,0,0,0-.25-.3l10.59,5.76a.54.54,0,0,1,.25.3C30.58,24.76,25.56,23.44,23.17,20.73Z"/><path class="cls-3" d="M22.92,20.43l10.59,5.76a.49.49,0,0,0-.32-.05L22.6,20.38A.49.49,0,0,1,22.92,20.43Z"/><path class="cls-3" d="M38,11.57l10.59,5.76a16.07,16.07,0,0,0-10-1.7L28,9.87A16.07,16.07,0,0,1,38,11.57Z"/><path class="cls-2" d="M15.81,40.13a14,14,0,0,1-3.06-9.05l10.59,5.76a14,14,0,0,0,3.06,9C23.23,44.17,18.6,42.44,15.81,40.13Z"/><path class="cls-3" d="M36.53,41.77,25.94,36a12.08,12.08,0,0,1-3.58-2.93c-2.43-2.94-7.22-10.68.17-12.69h.07l10.59,5.76h-.08c-7.38,2-2.59,9.75-.16,12.69A12,12,0,0,0,36.53,41.77Z"/><path class="cls-2" d="M38.57,19C47,17.8,53.74,23.9,53.73,32.57S46.89,49.26,38.51,50.43A13.56,13.56,0,0,1,30.3,49.1l-.55-.29-5.58,3.32L27,46.61l-.58-.72a14,14,0,0,1-3.06-9C23.36,28.17,30.19,20.15,38.57,19Zm9.1,19.69a.61.61,0,0,0-.31-.77l-4-1.61a.42.42,0,0,0-.27,0,.71.71,0,0,0-.5.34l-1.28,2a.8.8,0,0,1-.51.35.41.41,0,0,1-.19,0c-3.22-.75-5.68-3.74-6.61-5a.75.75,0,0,1,.12-.93,10.29,10.29,0,0,0,1.16-1.59.77.77,0,0,0,.08-.64l-1.57-4.32a.51.51,0,0,0-.57-.35h-.08c-7.38,2-2.59,9.75-.16,12.69a13.44,13.44,0,0,0,9.91,4.63,3.29,3.29,0,0,0,.63,0c2.54-.36,3.77-3.46,4.18-4.77"/><path class="cls-2" d="M12.75,31.08c0-8.67,6.85-16.69,15.23-17.86L38.57,19c-8.38,1.17-15.21,9.19-15.23,17.86Z"/><path class="cls-3" d="M38.57,15.63c10.09-1.42,18.28,6,18.26,16.5S48.59,52.37,38.5,53.78a16.25,16.25,0,0,1-9.25-1.31L20,56.35l3.43-8.78a17.32,17.32,0,0,1-3.15-10.29C20.26,26.76,28.48,17.05,38.57,15.63Zm-.06,34.8c8.38-1.17,15.2-9.18,15.22-17.86S47,17.8,38.57,19,23.36,28.17,23.34,36.84a14,14,0,0,0,3.06,9l.58.72-2.81,5.52,5.58-3.32.55.29a13.56,13.56,0,0,0,8.21,1.33"/><path class="cls-3" d="M23.39,47.57,12.81,41.81A17.32,17.32,0,0,1,9.65,31.52C9.67,21,17.89,11.29,28,9.87l10.59,5.76C28.48,17.05,20.26,26.76,20.24,37.28A17.32,17.32,0,0,0,23.39,47.57Z"/><path class="cls-4" d="M53.47,5.84c4.79-.67,8.67,3,8.66,8.15L62.07,48.8c0,5.17-3.9,9.91-8.7,10.59L21.12,63.92c-4.8.67-8.67-3-8.66-8.15L12.52,21c0-5.17,3.9-9.91,8.7-10.59Zm-15,47.94c10.09-1.41,18.31-11.12,18.33-21.65s-8.17-17.92-18.26-16.5S20.26,26.76,20.24,37.28a17.32,17.32,0,0,0,3.15,10.29L20,56.35l9.29-3.88a16.25,16.25,0,0,0,9.25,1.31"/><path class="cls-3" d="M33.19,26.14a.51.51,0,0,1,.57.35l1.57,4.32a.77.77,0,0,1-.08.64A10.29,10.29,0,0,1,34.09,33,.75.75,0,0,0,34,34c.93,1.25,3.39,4.24,6.61,5a.41.41,0,0,0,.19,0,.8.8,0,0,0,.51-.35l1.28-2a.71.71,0,0,1,.5-.34.42.42,0,0,1,.27,0l4,1.61a.61.61,0,0,1,.31.77C47.26,40,46,43.08,43.49,43.44a3.29,3.29,0,0,1-.63,0A13.44,13.44,0,0,1,33,38.84c-2.43-2.94-7.22-10.68.16-12.69Z"/><path class="cls-5" d="M47.52.88a7.44,7.44,0,0,0-4.64-.8L10.63,4.61C5.83,5.29,1.94,10,1.93,15.2L1.87,50a8.11,8.11,0,0,0,4,7.35l10.59,5.76a8.11,8.11,0,0,1-4-7.35L12.52,21c0-5.17,3.9-9.91,8.7-10.59L53.47,5.84a7.44,7.44,0,0,1,4.64.8Z"/></g></g></svg>