<?xml version="1.0" ?><svg data-name="1-facebook" id="_1-facebook" viewBox="0 0 64 64" xmlns="http://www.w3.org/2000/svg"><defs><style>.cls-1{isolation:isolate;}.cls-2{fill:#385997;}.cls-3{fill:#fff;}.cls-4{fill:#263762;}</style></defs><title/><g class="cls-1"><polygon class="cls-2" points="53.4 39.31 42.82 33.55 44.08 24.68 54.66 30.43 53.4 39.31"/><polygon class="cls-2" points="46.85 60.3 36.27 54.54 36.3 34.46 46.89 40.22 46.85 60.3"/><polygon class="cls-2" points="46.89 40.22 36.3 34.46 42.82 33.55 53.4 39.31 46.89 40.22"/><polygon class="cls-3" points="46.91 31.52 36.32 25.77 44.08 24.68 54.66 30.43 46.91 31.52"/><polygon class="cls-2" points="54.37 22.45 43.78 16.69 43.79 7.98 54.38 13.74 54.37 22.45"/><polygon class="cls-2" points="49.1 23.19 38.51 17.43 43.78 16.69 54.37 22.45 49.1 23.19"/><polygon class="cls-3" points="38.8 61.44 28.21 55.68 28.25 35.6 38.83 41.36 38.8 61.44"/><polygon class="cls-2" points="46.91 31.52 36.32 25.77 36.33 19.4 46.92 25.16 46.91 31.52"/><path class="cls-2" d="M38.51,17.43a2.8,2.8,0,0,1,.61.33l4.68,2.55,5.3,2.88c-.52.07-2.18.42-2.18,2L36.33,19.4C36.34,17.85,38,17.5,38.51,17.43Z"/><polygon class="cls-3" points="49.11 14.48 38.52 8.72 43.79 7.98 54.38 13.74 49.11 14.48"/><polygon class="cls-2" points="32.32 42.27 21.73 36.51 28.25 35.6 38.83 41.36 32.32 42.27"/><polygon class="cls-3" points="38.85 32.66 28.26 26.9 28.27 20.54 38.86 26.3 38.85 32.66"/><polygon class="cls-3" points="32.32 42.27 21.73 36.51 21.75 27.81 32.34 33.57 32.32 42.27"/><polygon class="cls-3" points="32.34 33.57 21.75 27.81 28.26 26.9 38.85 32.66 32.34 33.57"/><path class="cls-3" d="M54.38,13.74l0,8.71-5.26.74c-.52.07-2.18.42-2.18,2v6.37l7.75-1.09L53.4,39.31l-6.51.91,0,20.08L38.8,61.44l0-20.08-6.51.91,0-8.7,6.51-.91V26.3A12,12,0,0,1,49.11,14.48Z"/><path class="cls-3" d="M38.86,26.3,28.27,20.54A12,12,0,0,1,38.52,8.72l10.59,5.76A12,12,0,0,0,38.86,26.3Z"/><path class="cls-4" d="M47.52.88a7.44,7.44,0,0,0-4.64-.8L10.63,4.61c-4.79.68-8.69,5.42-8.7,10.6L1.87,50a8.11,8.11,0,0,0,4,7.35l10.58,5.76a8.14,8.14,0,0,1-4-7.35L12.52,21c0-5.17,3.91-9.92,8.7-10.59L53.47,5.84a7.42,7.42,0,0,1,4.63.8Z"/><path class="cls-2" d="M53.47,5.84c4.8-.67,8.67,3,8.66,8.15l-.06,34.8c0,5.19-3.9,9.92-8.7,10.6l-6.52.91,0-20.08,6.51-.91,1.26-8.87-7.75,1.09V25.16c0-1.55,1.66-1.9,2.18-2l5.26-.74,0-8.71-5.27.74A12,12,0,0,0,38.86,26.3v6.36l-6.51.91,0,8.7,6.51-.91,0,20.08L21.12,63.92c-4.79.67-8.67-3-8.67-8.15L12.52,21c0-5.17,3.91-9.92,8.7-10.59Z"/></g></svg>